<?xml version="1.0" encoding="UTF-8"?>
<!DOCTYPE svg PUBLIC "-//W3C//DTD SVG 1.1//EN" "http://www.w3.org/Graphics/SVG/1.1/DTD/svg11.dtd">
<svg xmlns="http://www.w3.org/2000/svg" version="1.1" width="500px" height="500px" style="shape-rendering:geometricPrecision; text-rendering:geometricPrecision; image-rendering:optimizeQuality; fill-rule:evenodd; clip-rule:evenodd" xmlns:xlink="http://www.w3.org/1999/xlink">
<g><path style="opacity:0.997" fill="#10587c" d="M 101.5,-0.5 C 200.167,-0.5 298.833,-0.5 397.5,-0.5C 454.5,10.5 488.5,44.5 499.5,101.5C 499.5,200.167 499.5,298.833 499.5,397.5C 488.5,454.5 454.5,488.5 397.5,499.5C 298.833,499.5 200.167,499.5 101.5,499.5C 44.5,488.5 10.5,454.5 -0.5,397.5C -0.5,298.833 -0.5,200.167 -0.5,101.5C 10.5,44.5 44.5,10.5 101.5,-0.5 Z"/></g>
<g><path style="opacity:1" fill="#a2becc" d="M 198.5,146.5 C 198.5,122.833 198.5,99.1667 198.5,75.5C 160.5,75.5 122.5,75.5 84.5,75.5C 84.5,138.5 84.5,201.5 84.5,264.5C 83.5003,201.905 83.167,138.571 83.5,74.5C 122.167,74.5 160.833,74.5 199.5,74.5C 199.831,98.6725 199.498,122.672 198.5,146.5 Z"/></g>
<g><path style="opacity:1" fill="#8fb1c1" d="M 349.5,145.5 C 365.5,145.5 381.5,145.5 397.5,145.5C 397.5,122.167 397.5,98.8333 397.5,75.5C 337.5,75.5 277.5,75.5 217.5,75.5C 217.5,98.8333 217.5,122.167 217.5,145.5C 233.5,145.5 249.5,145.5 265.5,145.5C 249.342,146.496 233.009,146.83 216.5,146.5C 216.5,122.5 216.5,98.5 216.5,74.5C 277.167,74.5 337.833,74.5 398.5,74.5C 398.5,98.5 398.5,122.5 398.5,146.5C 381.991,146.83 365.658,146.496 349.5,145.5 Z"/></g>
<g><path style="opacity:1" fill="#fefefe" d="M 198.5,146.5 C 182.497,162.504 166.83,178.837 151.5,195.5C 150.833,177.167 150.167,158.833 149.5,140.5C 143.833,140.5 138.167,140.5 132.5,140.5C 132.667,165.502 132.5,190.502 132,215.5C 116.3,232.033 100.466,248.366 84.5,264.5C 84.5,201.5 84.5,138.5 84.5,75.5C 122.5,75.5 160.5,75.5 198.5,75.5C 198.5,99.1667 198.5,122.833 198.5,146.5 Z"/></g>
<g><path style="opacity:1" fill="#fefefe" d="M 349.5,145.5 C 349.5,127.833 349.5,110.167 349.5,92.5C 343.69,91.5104 337.69,91.1771 331.5,91.5C 331.5,109.5 331.5,127.5 331.5,145.5C 315.5,145.5 299.5,145.5 283.5,145.5C 283.5,127.5 283.5,109.5 283.5,91.5C 277.31,91.1771 271.31,91.5104 265.5,92.5C 265.5,110.167 265.5,127.833 265.5,145.5C 249.5,145.5 233.5,145.5 217.5,145.5C 217.5,122.167 217.5,98.8333 217.5,75.5C 277.5,75.5 337.5,75.5 397.5,75.5C 397.5,98.8333 397.5,122.167 397.5,145.5C 381.5,145.5 365.5,145.5 349.5,145.5 Z"/></g>
<g><path style="opacity:1" fill="#155a7e" d="M 132.5,91.5 C 138.5,91.5 144.5,91.5 150.5,91.5C 150.5,102.167 150.5,112.833 150.5,123.5C 144.5,123.5 138.5,123.5 132.5,123.5C 132.5,112.833 132.5,102.167 132.5,91.5 Z"/></g>
<g><path style="opacity:1" fill="#3f7995" d="M 265.5,92.5 C 271.31,91.5104 277.31,91.1771 283.5,91.5C 283.5,109.5 283.5,127.5 283.5,145.5C 282.503,128.008 282.17,110.341 282.5,92.5C 276.833,92.5 271.167,92.5 265.5,92.5 Z"/></g>
<g><path style="opacity:1" fill="#709bb0" d="M 349.5,92.5 C 343.833,92.5 338.167,92.5 332.5,92.5C 332.83,110.341 332.497,128.008 331.5,145.5C 331.5,127.5 331.5,109.5 331.5,91.5C 337.69,91.1771 343.69,91.5104 349.5,92.5 Z"/></g>
<g><path style="opacity:1" fill="#2e6c8c" d="M 149.5,140.5 C 150.167,158.833 150.833,177.167 151.5,195.5C 151.44,196.043 151.107,196.376 150.5,196.5C 149.5,177.845 149.167,159.179 149.5,140.5 Z"/></g>
<g><path style="opacity:1" fill="#fefefe" d="M 273.5,388.5 C 210.669,387.501 147.669,387.168 84.5,387.5C 84.5,355.5 84.5,323.5 84.5,291.5C 124.598,248.566 165.265,206.066 206.5,164C 270.499,163.5 334.499,163.333 398.5,163.5C 398.5,209.167 398.5,254.833 398.5,300.5C 414.167,300.5 429.833,300.5 445.5,300.5C 445.5,329.833 445.5,359.167 445.5,388.5C 429.833,388.5 414.167,388.5 398.5,388.5C 398.5,408.167 398.5,427.833 398.5,447.5C 356.833,447.5 315.167,447.5 273.5,447.5C 273.5,427.833 273.5,408.167 273.5,388.5 Z"/></g>
<g><path style="opacity:1" fill="#13597d" d="M 336.5,205.5 C 340.198,204.68 342.531,206.013 343.5,209.5C 340.432,216.536 337.265,223.536 334,230.5C 328.635,236.199 322.969,241.533 317,246.5C 316.667,280.833 316.333,315.167 316,349.5C 312.3,353.535 308.3,357.202 304,360.5C 295.782,335.344 287.282,310.344 278.5,285.5C 268.88,293.618 259.713,302.285 251,311.5C 250.667,323.5 250.333,335.5 250,347.5C 247.962,352.232 244.462,354.399 239.5,354C 233.75,343.995 228.917,333.495 225,322.5C 215.122,318.145 205.289,313.645 195.5,309C 191.448,304.483 192.114,300.483 197.5,297C 210.167,296.667 222.833,296.333 235.5,296C 244.348,286.986 253.348,278.152 262.5,269.5C 238.621,261.04 214.621,252.874 190.5,245C 189.044,244.577 188.544,243.744 189,242.5C 192.5,239 196,235.5 199.5,232C 233.5,231.667 267.5,231.333 301.5,231C 306.5,226 311.5,221 316.5,216C 323.102,212.201 329.768,208.701 336.5,205.5 Z"/></g>
<g><path style="opacity:1" fill="#a8c2cf" d="M 84.5,291.5 C 84.5,323.5 84.5,355.5 84.5,387.5C 147.669,387.168 210.669,387.501 273.5,388.5C 210.167,388.5 146.833,388.5 83.5,388.5C 83.1684,355.996 83.5018,323.662 84.5,291.5 Z"/></g>
</svg>
